<svg width="3508" height="2480"><g transform="translate(116.93333333333332,0)"><text x="467.7333333333333" y="150" style="font-family:chivo;font-size:70;text-anchor:middle;font-weight:bold;fill:rgb(54,21,44)">Entrées</text><text x="0" y="265" style="font-family:chivo;font-size:30;font-weight:bold;fill:rgb(54,21,44);">Satay fait maison</text><path d="m 47.081623,9.2729714 c -9.06253,0 -11.34962,0.36348 -16.78379,2.6699196 -8.0254,3.40624 -15.71177,10.36799 -19.4736,17.63477 -2.5472201,4.9205 -2.9486501,6.98943 -2.9486501,15.19531 0,8.92004 0.22987,9.88528 3.7791101,15.8125 5.6874,9.49794 12.24552,14.27944 25.0797,18.28516 19.11429,5.96583 23.75296,10.33986 28.81567,27.167969 1.52807,5.07925 3.91926,11.25937 5.31274,13.73437 4.1998,7.45944 13.75785,14.65543 23.96237,18.03906 9.054267,3.00223 23.577877,2.28151 32.286297,-1.60156 8.39254,-3.74221 17.11229,-11.60649 21.16687,-19.08984 2.8763,-5.30866 3.16867,-6.81368 3.16867,-16.34766 0,-9.471519 -0.30201,-11.056769 -3.08671,-16.191409 -4.04387,-7.45639 -11.97483,-15.34268 -18.33037,-18.22851 -2.79874,-1.2708 -10.24804,-3.75364 -16.55299,-5.51563 -6.30494,-1.76198 -13.31129,-4.25812 -15.569377,-5.54882 -4.47565,-2.55829 -8.76639,-9.43636 -13.88045,-22.2461 -3.59999,-9.01732 -9.98109,-15.68114 -19.48223,-20.3457 -6.546,-3.2137296 -7.612,-3.4238296 -17.46326,-3.4238296 z M 27.972573,22.896021 c 4.60045,-0.14686 8.29121,5.52963 4.1199,9.30664 -0.95451,0.86429 -2.65751,1.57031 -3.78557,1.57031 -5.24599,0 -7.75499,-6.83557 -3.5785,-9.75 1.07314,-0.74886 2.18251,-1.09306 3.24417,-1.12695 z m 11.36966,13.96679 c 0.19271,-0.006 0.38584,-0.004 0.57808,0.006 3.38332,0.18165 6.58495,2.86426 5.66219,6.19336 -0.85118,3.07077 -5.04494,4.8841 -7.95942,3.44141 -4.14398,-2.0513 -5.01155,-5.48562 -2.05996,-8.1582 1.08761,-0.98481 2.43013,-1.43935 3.77911,-1.48243 z m -17.6617,1.91016 c 1.57928,0 3.46651,0.54117 4.19541,1.20117 2.19669,1.98904 1.57598,6.52719 -1.12813,8.24219 -1.34998,0.85618 -2.73018,1.55664 -3.06728,1.55664 -2.24,0 -5.52198,-3.47971 -5.52198,-5.85547 0,-3.44143 1.82716,-5.14453 5.52198,-5.14453 z" transform="translate(-70,230) scale(0.3)" fill="rgb(54,21,44)"></path><text x="0" y="310" style="font-family:chivo;font-size:30;font-weight:none;fill:rgb(54,21,44);">boeuf</text><text x="935.4666666666666" y="265" style="font-family:chivo;font-size:30;font-weight:none;fill:rgb(54,21,44);text-anchor:end">petit / grand</text><text x="935.4666666666666" y="310" style="font-family:chivo;font-size:30;font-weight:none;fill:rgb(54,21,44);text-anchor:end">13.50 / 24</text><text x="0" y="355" style="font-family:chivo;font-size:30;font-weight:none;fill:rgb(54,21,44);">porc</text><text x="935.4666666666666" y="265" style="font-family:chivo;font-size:30;font-weight:none;fill:rgb(54,21,44);text-anchor:end">petit / grand</text><text x="935.4666666666666" y="355" style="font-family:chivo;font-size:30;font-weight:none;fill:rgb(54,21,44);text-anchor:end">12.50 / 23</text><text x="0" y="400" style="font-family:chivo;font-size:30;font-weight:none;fill:rgb(54,21,44);">poulet</text><text x="935.4666666666666" y="265" style="font-family:chivo;font-size:30;font-weight:none;fill:rgb(54,21,44);text-anchor:end">petit / grand</text><text x="935.4666666666666" y="400" style="font-family:chivo;font-size:30;font-weight:none;fill:rgb(54,21,44);text-anchor:end">12.50 / 23</text><text x="0" y="445" style="font-family:chivo;font-size:30;font-weight:none;fill:rgb(54,21,44);">crevettes</text><text x="935.4666666666666" y="265" style="font-family:chivo;font-size:30;font-weight:none;fill:rgb(54,21,44);text-anchor:end">petit / grand</text><text x="935.4666666666666" y="445" style="font-family:chivo;font-size:30;font-weight:none;fill:rgb(54,21,44);text-anchor:end">13.50 / 24</text><text x="0" y="510" style="font-family:chivo;font-size:30;font-weight:bold;fill:rgb(54,21,44);">Rouleaux de printemps</text><text x="0" y="555" style="font-family:chivo;font-size:30;font-weight:none;fill:rgb(54,21,44);">poulet fait maison</text><text x="935.4666666666666" y="555" style="font-family:chivo;font-size:30;font-weight:none;fill:rgb(54,21,44);text-anchor:end">13</text><text x="0" y="600" style="font-family:chivo;font-size:30;font-weight:none;fill:rgb(54,21,44);">crevettes</text><text x="935.4666666666666" y="600" style="font-family:chivo;font-size:30;font-weight:none;fill:rgb(54,21,44);text-anchor:end">13</text><text x="0" y="645" style="font-family:chivo;font-size:30;font-weight:none;fill:rgb(54,21,44);">légumes</text><text x="935.4666666666666" y="645" style="font-family:chivo;font-size:30;font-weight:none;fill:rgb(54,21,44);text-anchor:end">12.50</text><text x="0" y="710" style="font-family:chivo;font-size:30;font-weight:bold;fill:rgb(54,21,44);">Tofu au tamarin et aux arachides</text><path d="m 47.081623,9.2729714 c -9.06253,0 -11.34962,0.36348 -16.78379,2.6699196 -8.0254,3.40624 -15.71177,10.36799 -19.4736,17.63477 -2.5472201,4.9205 -2.9486501,6.98943 -2.9486501,15.19531 0,8.92004 0.22987,9.88528 3.7791101,15.8125 5.6874,9.49794 12.24552,14.27944 25.0797,18.28516 19.11429,5.96583 23.75296,10.33986 28.81567,27.167969 1.52807,5.07925 3.91926,11.25937 5.31274,13.73437 4.1998,7.45944 13.75785,14.65543 23.96237,18.03906 9.054267,3.00223 23.577877,2.28151 32.286297,-1.60156 8.39254,-3.74221 17.11229,-11.60649 21.16687,-19.08984 2.8763,-5.30866 3.16867,-6.81368 3.16867,-16.34766 0,-9.471519 -0.30201,-11.056769 -3.08671,-16.191409 -4.04387,-7.45639 -11.97483,-15.34268 -18.33037,-18.22851 -2.79874,-1.2708 -10.24804,-3.75364 -16.55299,-5.51563 -6.30494,-1.76198 -13.31129,-4.25812 -15.569377,-5.54882 -4.47565,-2.55829 -8.76639,-9.43636 -13.88045,-22.2461 -3.59999,-9.01732 -9.98109,-15.68114 -19.48223,-20.3457 -6.546,-3.2137296 -7.612,-3.4238296 -17.46326,-3.4238296 z M 27.972573,22.896021 c 4.60045,-0.14686 8.29121,5.52963 4.1199,9.30664 -0.95451,0.86429 -2.65751,1.57031 -3.78557,1.57031 -5.24599,0 -7.75499,-6.83557 -3.5785,-9.75 1.07314,-0.74886 2.18251,-1.09306 3.24417,-1.12695 z m 11.36966,13.96679 c 0.19271,-0.006 0.38584,-0.004 0.57808,0.006 3.38332,0.18165 6.58495,2.86426 5.66219,6.19336 -0.85118,3.07077 -5.04494,4.8841 -7.95942,3.44141 -4.14398,-2.0513 -5.01155,-5.48562 -2.05996,-8.1582 1.08761,-0.98481 2.43013,-1.43935 3.77911,-1.48243 z m -17.6617,1.91016 c 1.57928,0 3.46651,0.54117 4.19541,1.20117 2.19669,1.98904 1.57598,6.52719 -1.12813,8.24219 -1.34998,0.85618 -2.73018,1.55664 -3.06728,1.55664 -2.24,0 -5.52198,-3.47971 -5.52198,-5.85547 0,-3.44143 1.82716,-5.14453 5.52198,-5.14453 z" transform="translate(-70,675) scale(0.3)" fill="rgb(54,21,44)"></path><text x="935.4666666666666" y="755" style="font-family:chivo;font-size:30;font-weight:none;fill:rgb(54,21,44);text-anchor:end">10</text><text x="818.5333333333333" y="755" style="font-family:chivo;font-size:30;font-weight:none;fill:rgb(54,21,44);text-anchor:end">petit</text><text x="935.4666666666666" y="800" style="font-family:chivo;font-size:30;font-weight:none;fill:rgb(54,21,44);text-anchor:end">15</text><text x="818.5333333333333" y="800" style="font-family:chivo;font-size:30;font-weight:none;fill:rgb(54,21,44);text-anchor:end">grand</text><text x="0" y="865" style="font-family:chivo;font-size:30;font-weight:bold;fill:rgb(54,21,44);">Assortiment d'entrées</text><text x="0" y="902.5" style="font-family:chivo;font-size:25;font-weight:italic;fill:rgb(54,21,44);">Rouleux de printemps crevettes et légumes et raviolis crevettes et légumes</text><text x="935.4666666666666" y="947.5" style="font-family:chivo;font-size:30;font-weight:none;fill:rgb(54,21,44);text-anchor:end">14</text><text x="818.5333333333333" y="947.5" style="font-family:chivo;font-size:30;font-weight:none;fill:rgb(54,21,44);text-anchor:end">petit</text><text x="935.4666666666666" y="992.5" style="font-family:chivo;font-size:30;font-weight:none;fill:rgb(54,21,44);text-anchor:end">26.50</text><text x="818.5333333333333" y="992.5" style="font-family:chivo;font-size:30;font-weight:none;fill:rgb(54,21,44);text-anchor:end">grand</text><text x="467.7333333333333" y="1080" style="font-family:chivo;font-size:70;text-anchor:middle;font-weight:bold;fill:rgb(54,21,44)">Salades</text><text x="0" y="1195" style="font-family:chivo;font-size:30;font-weight:bold;fill:rgb(54,21,44);">Salade mixte</text><path d="m 47.081623,9.2729714 c -9.06253,0 -11.34962,0.36348 -16.78379,2.6699196 -8.0254,3.40624 -15.71177,10.36799 -19.4736,17.63477 -2.5472201,4.9205 -2.9486501,6.98943 -2.9486501,15.19531 0,8.92004 0.22987,9.88528 3.7791101,15.8125 5.6874,9.49794 12.24552,14.27944 25.0797,18.28516 19.11429,5.96583 23.75296,10.33986 28.81567,27.167969 1.52807,5.07925 3.91926,11.25937 5.31274,13.73437 4.1998,7.45944 13.75785,14.65543 23.96237,18.03906 9.054267,3.00223 23.577877,2.28151 32.286297,-1.60156 8.39254,-3.74221 17.11229,-11.60649 21.16687,-19.08984 2.8763,-5.30866 3.16867,-6.81368 3.16867,-16.34766 0,-9.471519 -0.30201,-11.056769 -3.08671,-16.191409 -4.04387,-7.45639 -11.97483,-15.34268 -18.33037,-18.22851 -2.79874,-1.2708 -10.24804,-3.75364 -16.55299,-5.51563 -6.30494,-1.76198 -13.31129,-4.25812 -15.569377,-5.54882 -4.47565,-2.55829 -8.76639,-9.43636 -13.88045,-22.2461 -3.59999,-9.01732 -9.98109,-15.68114 -19.48223,-20.3457 -6.546,-3.2137296 -7.612,-3.4238296 -17.46326,-3.4238296 z M 27.972573,22.896021 c 4.60045,-0.14686 8.29121,5.52963 4.1199,9.30664 -0.95451,0.86429 -2.65751,1.57031 -3.78557,1.57031 -5.24599,0 -7.75499,-6.83557 -3.5785,-9.75 1.07314,-0.74886 2.18251,-1.09306 3.24417,-1.12695 z m 11.36966,13.96679 c 0.19271,-0.006 0.38584,-0.004 0.57808,0.006 3.38332,0.18165 6.58495,2.86426 5.66219,6.19336 -0.85118,3.07077 -5.04494,4.8841 -7.95942,3.44141 -4.14398,-2.0513 -5.01155,-5.48562 -2.05996,-8.1582 1.08761,-0.98481 2.43013,-1.43935 3.77911,-1.48243 z m -17.6617,1.91016 c 1.57928,0 3.46651,0.54117 4.19541,1.20117 2.19669,1.98904 1.57598,6.52719 -1.12813,8.24219 -1.34998,0.85618 -2.73018,1.55664 -3.06728,1.55664 -2.24,0 -5.52198,-3.47971 -5.52198,-5.85547 0,-3.44143 1.82716,-5.14453 5.52198,-5.14453 z" transform="translate(-70,1160) scale(0.3)" fill="rgb(54,21,44)"></path><text x="0" y="1232.5" style="font-family:chivo;font-size:25;font-weight:italic;fill:rgb(54,21,44);">Sauce aux herbes thaïs et aux arachides</text><text x="0" y="1277.5" style="font-family:chivo;font-size:30;font-weight:none;fill:rgb(54,21,44);">poulet - citronelle</text><text x="935.4666666666666" y="1195" style="font-family:chivo;font-size:30;font-weight:none;fill:rgb(54,21,44);text-anchor:end">petite / grande</text><text x="935.4666666666666" y="1277.5" style="font-family:chivo;font-size:30;font-weight:none;fill:rgb(54,21,44);text-anchor:end">12.50 / 22</text><text x="0" y="1322.5" style="font-family:chivo;font-size:30;font-weight:none;fill:rgb(54,21,44);">boeuf - citronelle</text><text x="935.4666666666666" y="1195" style="font-family:chivo;font-size:30;font-weight:none;fill:rgb(54,21,44);text-anchor:end">petite / grande</text><text x="935.4666666666666" y="1322.5" style="font-family:chivo;font-size:30;font-weight:none;fill:rgb(54,21,44);text-anchor:end">14.50 / 25</text><text x="0" y="1367.5" style="font-family:chivo;font-size:30;font-weight:none;fill:rgb(54,21,44);">crevettes - citronelle</text><text x="935.4666666666666" y="1195" style="font-family:chivo;font-size:30;font-weight:none;fill:rgb(54,21,44);text-anchor:end">petite / grande</text><text x="935.4666666666666" y="1367.5" style="font-family:chivo;font-size:30;font-weight:none;fill:rgb(54,21,44);text-anchor:end">13.50 / 24</text><text x="0" y="1412.5" style="font-family:chivo;font-size:30;font-weight:none;fill:rgb(54,21,44);">calamars</text><text x="935.4666666666666" y="1195" style="font-family:chivo;font-size:30;font-weight:none;fill:rgb(54,21,44);text-anchor:end">petite / grande</text><text x="935.4666666666666" y="1412.5" style="font-family:chivo;font-size:30;font-weight:none;fill:rgb(54,21,44);text-anchor:end">13.50 / 24</text><text x="0" y="1477.5" style="font-family:chivo;font-size:30;font-weight:bold;fill:rgb(54,21,44);">Salade de vermicelles</text><path d="m 14.991193,141.35332 c -10.5827801,-3.75251 -10.5274501,-4.56719 0.51791,-7.62387 23.35466,-6.46317 40.33945,-20.5823 57.27005,-47.607489 12.43151,-19.84359 22.55888,-31.3484 29.626327,-33.65587 12.05762,-3.9367 27.40164,5.55004 31.17502,19.27454 2.60811,9.48619 -1.07526,19.61067 -11.11019,30.538609 -11.99436,13.06173 -36.748977,28.56253 -59.673167,37.36602 -9.75784,3.74728 -39.09858,4.79556 -47.80595,1.70806 z m 56.84651,-33.91904 c 3.67126,-3.52154 9.70319,-11.027149 13.40427,-16.679149 7.87977,-12.03333 21.675777,-26.27442 26.814937,-27.68 4.64727,-1.27104 4.55787,-2.88144 -0.29373,-5.29032 -8.13274,-4.03801 -17.090167,3.01725 -26.900307,21.18782 -6.82869,12.64828 -21.95985,31.250399 -33.23327,40.856689 -5.04567,4.29953 -4.91326,4.27485 4.16079,-0.7757 5.15477,-2.8691 12.37607,-8.09781 16.04731,-11.61934 z M 137.27741,65.790811 c -1.85836,-6.38061 -8.3716,-13.00307 -14.65655,-14.90237 l -6.21957,-1.87953 4.46701,-2.18212 c 2.45686,-1.20018 6.56973,-2.03641 9.13971,-1.85831 2.56997,0.17809 5.71746,-0.62108 6.99441,-1.77594 4.35963,-3.94283 7.35382,-15.68761 6.66087,-26.12733 -0.64577,-9.7285996 -0.6241,-9.7916296 3.36617,-9.7916296 4.44744,0 5.79694,3.0415396 5.83211,13.1444196 0.0307,8.79953 -2.76298,16.19933 -8.66656,22.95626 -4.13693,4.73492 -4.91786,6.51426 -3.52517,8.03192 2.39617,2.61117 2.18945,11.13571 -0.35888,14.79903 -1.96426,2.82371 -2.09567,2.80575 -3.03355,-0.4144 z" transform="translate(-70,1442.5) scale(0.3)" fill="rgb(54,21,44)"></path><text x="935.4666666666666" y="1522.5" style="font-family:chivo;font-size:30;font-weight:none;fill:rgb(54,21,44);text-anchor:end">15</text><text x="818.5333333333333" y="1522.5" style="font-family:chivo;font-size:30;font-weight:none;fill:rgb(54,21,44);text-anchor:end">petite</text><text x="935.4666666666666" y="1567.5" style="font-family:chivo;font-size:30;font-weight:none;fill:rgb(54,21,44);text-anchor:end">27</text><text x="818.5333333333333" y="1567.5" style="font-family:chivo;font-size:30;font-weight:none;fill:rgb(54,21,44);text-anchor:end">grande</text><text x="467.7333333333333" y="1700" style="font-family:chivo;font-size:70;text-anchor:middle;font-weight:bold;fill:rgb(54,21,44)">Nouilles</text><text x="0" y="1815" style="font-family:chivo;font-size:30;font-weight:bold;fill:rgb(54,21,44);">Pad thaï</text><path d="m 47.081623,9.2729714 c -9.06253,0 -11.34962,0.36348 -16.78379,2.6699196 -8.0254,3.40624 -15.71177,10.36799 -19.4736,17.63477 -2.5472201,4.9205 -2.9486501,6.98943 -2.9486501,15.19531 0,8.92004 0.22987,9.88528 3.7791101,15.8125 5.6874,9.49794 12.24552,14.27944 25.0797,18.28516 19.11429,5.96583 23.75296,10.33986 28.81567,27.167969 1.52807,5.07925 3.91926,11.25937 5.31274,13.73437 4.1998,7.45944 13.75785,14.65543 23.96237,18.03906 9.054267,3.00223 23.577877,2.28151 32.286297,-1.60156 8.39254,-3.74221 17.11229,-11.60649 21.16687,-19.08984 2.8763,-5.30866 3.16867,-6.81368 3.16867,-16.34766 0,-9.471519 -0.30201,-11.056769 -3.08671,-16.191409 -4.04387,-7.45639 -11.97483,-15.34268 -18.33037,-18.22851 -2.79874,-1.2708 -10.24804,-3.75364 -16.55299,-5.51563 -6.30494,-1.76198 -13.31129,-4.25812 -15.569377,-5.54882 -4.47565,-2.55829 -8.76639,-9.43636 -13.88045,-22.2461 -3.59999,-9.01732 -9.98109,-15.68114 -19.48223,-20.3457 -6.546,-3.2137296 -7.612,-3.4238296 -17.46326,-3.4238296 z M 27.972573,22.896021 c 4.60045,-0.14686 8.29121,5.52963 4.1199,9.30664 -0.95451,0.86429 -2.65751,1.57031 -3.78557,1.57031 -5.24599,0 -7.75499,-6.83557 -3.5785,-9.75 1.07314,-0.74886 2.18251,-1.09306 3.24417,-1.12695 z m 11.36966,13.96679 c 0.19271,-0.006 0.38584,-0.004 0.57808,0.006 3.38332,0.18165 6.58495,2.86426 5.66219,6.19336 -0.85118,3.07077 -5.04494,4.8841 -7.95942,3.44141 -4.14398,-2.0513 -5.01155,-5.48562 -2.05996,-8.1582 1.08761,-0.98481 2.43013,-1.43935 3.77911,-1.48243 z m -17.6617,1.91016 c 1.57928,0 3.46651,0.54117 4.19541,1.20117 2.19669,1.98904 1.57598,6.52719 -1.12813,8.24219 -1.34998,0.85618 -2.73018,1.55664 -3.06728,1.55664 -2.24,0 -5.52198,-3.47971 -5.52198,-5.85547 0,-3.44143 1.82716,-5.14453 5.52198,-5.14453 z" transform="translate(-70,1780) scale(0.3)" fill="rgb(54,21,44)"></path><text x="0" y="1852.5" style="font-family:chivo;font-size:25;font-weight:italic;fill:rgb(54,21,44);">Nouilles à la poële</text><text x="0" y="1897.5" style="font-family:chivo;font-size:30;font-weight:none;fill:rgb(54,21,44);">poulet</text><text x="935.4666666666666" y="1897.5" style="font-family:chivo;font-size:30;font-weight:none;fill:rgb(54,21,44);text-anchor:end">21.50</text><text x="0" y="1942.5" style="font-family:chivo;font-size:30;font-weight:none;fill:rgb(54,21,44);">porc</text><text x="935.4666666666666" y="1942.5" style="font-family:chivo;font-size:30;font-weight:none;fill:rgb(54,21,44);text-anchor:end">22</text><text x="0" y="1987.5" style="font-family:chivo;font-size:30;font-weight:none;fill:rgb(54,21,44);">boeuf</text><text x="935.4666666666666" y="1987.5" style="font-family:chivo;font-size:30;font-weight:none;fill:rgb(54,21,44);text-anchor:end">25</text><text x="0" y="2032.5" style="font-family:chivo;font-size:30;font-weight:none;fill:rgb(54,21,44);">crevettes</text><text x="935.4666666666666" y="2032.5" style="font-family:chivo;font-size:30;font-weight:none;fill:rgb(54,21,44);text-anchor:end">24</text><text x="0" y="2077.5" style="font-family:chivo;font-size:30;font-weight:none;fill:rgb(54,21,44);">tofu</text><text x="935.4666666666666" y="2077.5" style="font-family:chivo;font-size:30;font-weight:none;fill:rgb(54,21,44);text-anchor:end">20.50</text><text x="0" y="2142.5" style="font-family:chivo;font-size:30;font-weight:bold;fill:rgb(54,21,44);">Pattaya</text><path d="m 47.081623,9.2729714 c -9.06253,0 -11.34962,0.36348 -16.78379,2.6699196 -8.0254,3.40624 -15.71177,10.36799 -19.4736,17.63477 -2.5472201,4.9205 -2.9486501,6.98943 -2.9486501,15.19531 0,8.92004 0.22987,9.88528 3.7791101,15.8125 5.6874,9.49794 12.24552,14.27944 25.0797,18.28516 19.11429,5.96583 23.75296,10.33986 28.81567,27.167969 1.52807,5.07925 3.91926,11.25937 5.31274,13.73437 4.1998,7.45944 13.75785,14.65543 23.96237,18.03906 9.054267,3.00223 23.577877,2.28151 32.286297,-1.60156 8.39254,-3.74221 17.11229,-11.60649 21.16687,-19.08984 2.8763,-5.30866 3.16867,-6.81368 3.16867,-16.34766 0,-9.471519 -0.30201,-11.056769 -3.08671,-16.191409 -4.04387,-7.45639 -11.97483,-15.34268 -18.33037,-18.22851 -2.79874,-1.2708 -10.24804,-3.75364 -16.55299,-5.51563 -6.30494,-1.76198 -13.31129,-4.25812 -15.569377,-5.54882 -4.47565,-2.55829 -8.76639,-9.43636 -13.88045,-22.2461 -3.59999,-9.01732 -9.98109,-15.68114 -19.48223,-20.3457 -6.546,-3.2137296 -7.612,-3.4238296 -17.46326,-3.4238296 z M 27.972573,22.896021 c 4.60045,-0.14686 8.29121,5.52963 4.1199,9.30664 -0.95451,0.86429 -2.65751,1.57031 -3.78557,1.57031 -5.24599,0 -7.75499,-6.83557 -3.5785,-9.75 1.07314,-0.74886 2.18251,-1.09306 3.24417,-1.12695 z m 11.36966,13.96679 c 0.19271,-0.006 0.38584,-0.004 0.57808,0.006 3.38332,0.18165 6.58495,2.86426 5.66219,6.19336 -0.85118,3.07077 -5.04494,4.8841 -7.95942,3.44141 -4.14398,-2.0513 -5.01155,-5.48562 -2.05996,-8.1582 1.08761,-0.98481 2.43013,-1.43935 3.77911,-1.48243 z m -17.6617,1.91016 c 1.57928,0 3.46651,0.54117 4.19541,1.20117 2.19669,1.98904 1.57598,6.52719 -1.12813,8.24219 -1.34998,0.85618 -2.73018,1.55664 -3.06728,1.55664 -2.24,0 -5.52198,-3.47971 -5.52198,-5.85547 0,-3.44143 1.82716,-5.14453 5.52198,-5.14453 z" transform="translate(-70,2107.5) scale(0.3)" fill="rgb(54,21,44)"></path><text x="0" y="2180" style="font-family:chivo;font-size:25;font-weight:italic;fill:rgb(54,21,44);">Nouilles à la vapeur</text><text x="0" y="2225" style="font-family:chivo;font-size:30;font-weight:none;fill:rgb(54,21,44);">poulet</text><text x="935.4666666666666" y="2225" style="font-family:chivo;font-size:30;font-weight:none;fill:rgb(54,21,44);text-anchor:end">21.50</text><text x="0" y="2270" style="font-family:chivo;font-size:30;font-weight:none;fill:rgb(54,21,44);">porc</text><text x="935.4666666666666" y="2270" style="font-family:chivo;font-size:30;font-weight:none;fill:rgb(54,21,44);text-anchor:end">22</text><text x="0" y="2315" style="font-family:chivo;font-size:30;font-weight:none;fill:rgb(54,21,44);">boeuf</text><text x="935.4666666666666" y="2315" style="font-family:chivo;font-size:30;font-weight:none;fill:rgb(54,21,44);text-anchor:end">25</text><text x="0" y="2360" style="font-family:chivo;font-size:30;font-weight:none;fill:rgb(54,21,44);">crevettes</text><text x="935.4666666666666" y="2360" style="font-family:chivo;font-size:30;font-weight:none;fill:rgb(54,21,44);text-anchor:end">24</text><text x="0" y="2405" style="font-family:chivo;font-size:30;font-weight:none;fill:rgb(54,21,44);">calamars</text><text x="935.4666666666666" y="2405" style="font-family:chivo;font-size:30;font-weight:none;fill:rgb(54,21,44);text-anchor:end">22.50</text><text x="0" y="2450" style="font-family:chivo;font-size:30;font-weight:none;fill:rgb(54,21,44);">tofu</text><text x="935.4666666666666" y="2450" style="font-family:chivo;font-size:30;font-weight:none;fill:rgb(54,21,44);text-anchor:end">20.50</text></g><g transform="translate(1286.2666666666667,0)"><text x="467.7333333333333" y="950" style="font-family:chivo;font-size:70;text-anchor:middle;font-weight:bold;fill:rgb(54,21,44)">Plats avec du riz</text><text x="0" y="1065" style="font-family:chivo;font-size:30;font-weight:bold;fill:rgb(54,21,44);">Poulet croustillant</text><text x="935.4666666666666" y="1065" style="font-family:chivo;font-size:30;font-weight:none;fill:rgb(54,21,44);text-anchor:end">23.50</text><text x="0" y="1102.5" style="font-family:chivo;font-size:25;font-weight:italic;fill:rgb(54,21,44);">Sauce aux herbes</text><text x="0" y="1167.5" style="font-family:chivo;font-size:30;font-weight:bold;fill:rgb(54,21,44);">Tom yum</text><path d="m 14.991193,141.35332 c -10.5827801,-3.75251 -10.5274501,-4.56719 0.51791,-7.62387 23.35466,-6.46317 40.33945,-20.5823 57.27005,-47.607489 12.43151,-19.84359 22.55888,-31.3484 29.626327,-33.65587 12.05762,-3.9367 27.40164,5.55004 31.17502,19.27454 2.60811,9.48619 -1.07526,19.61067 -11.11019,30.538609 -11.99436,13.06173 -36.748977,28.56253 -59.673167,37.36602 -9.75784,3.74728 -39.09858,4.79556 -47.80595,1.70806 z m 56.84651,-33.91904 c 3.67126,-3.52154 9.70319,-11.027149 13.40427,-16.679149 7.87977,-12.03333 21.675777,-26.27442 26.814937,-27.68 4.64727,-1.27104 4.55787,-2.88144 -0.29373,-5.29032 -8.13274,-4.03801 -17.090167,3.01725 -26.900307,21.18782 -6.82869,12.64828 -21.95985,31.250399 -33.23327,40.856689 -5.04567,4.29953 -4.91326,4.27485 4.16079,-0.7757 5.15477,-2.8691 12.37607,-8.09781 16.04731,-11.61934 z M 137.27741,65.790811 c -1.85836,-6.38061 -8.3716,-13.00307 -14.65655,-14.90237 l -6.21957,-1.87953 4.46701,-2.18212 c 2.45686,-1.20018 6.56973,-2.03641 9.13971,-1.85831 2.56997,0.17809 5.71746,-0.62108 6.99441,-1.77594 4.35963,-3.94283 7.35382,-15.68761 6.66087,-26.12733 -0.64577,-9.7285996 -0.6241,-9.7916296 3.36617,-9.7916296 4.44744,0 5.79694,3.0415396 5.83211,13.1444196 0.0307,8.79953 -2.76298,16.19933 -8.66656,22.95626 -4.13693,4.73492 -4.91786,6.51426 -3.52517,8.03192 2.39617,2.61117 2.18945,11.13571 -0.35888,14.79903 -1.96426,2.82371 -2.09567,2.80575 -3.03355,-0.4144 z" transform="translate(-70,1132.5) scale(0.3)" fill="rgb(54,21,44)"></path><text x="0" y="1205" style="font-family:chivo;font-size:25;font-weight:italic;fill:rgb(54,21,44);">Au lait de coco et à la citronelle</text><text x="0" y="1250" style="font-family:chivo;font-size:30;font-weight:none;fill:rgb(54,21,44);">poulet</text><text x="935.4666666666666" y="1250" style="font-family:chivo;font-size:30;font-weight:none;fill:rgb(54,21,44);text-anchor:end">21.50</text><text x="0" y="1295" style="font-family:chivo;font-size:30;font-weight:none;fill:rgb(54,21,44);">crevettes</text><text x="935.4666666666666" y="1295" style="font-family:chivo;font-size:30;font-weight:none;fill:rgb(54,21,44);text-anchor:end">24</text><text x="0" y="1340" style="font-family:chivo;font-size:30;font-weight:none;fill:rgb(54,21,44);">calamars</text><text x="935.4666666666666" y="1340" style="font-family:chivo;font-size:30;font-weight:none;fill:rgb(54,21,44);text-anchor:end">22.50</text><text x="0" y="1385" style="font-family:chivo;font-size:30;font-weight:none;fill:rgb(54,21,44);">tofu</text><text x="935.4666666666666" y="1385" style="font-family:chivo;font-size:30;font-weight:none;fill:rgb(54,21,44);text-anchor:end">20.50</text><text x="0" y="1450" style="font-family:chivo;font-size:30;font-weight:bold;fill:rgb(54,21,44);">Tom kha</text><text x="0" y="1487.5" style="font-family:chivo;font-size:25;font-weight:italic;fill:rgb(54,21,44);">Au lait de coco et au galanga</text><text x="0" y="1532.5" style="font-family:chivo;font-size:30;font-weight:none;fill:rgb(54,21,44);">poulet</text><text x="935.4666666666666" y="1532.5" style="font-family:chivo;font-size:30;font-weight:none;fill:rgb(54,21,44);text-anchor:end">21.50</text><text x="0" y="1577.5" style="font-family:chivo;font-size:30;font-weight:none;fill:rgb(54,21,44);">crevettes</text><text x="935.4666666666666" y="1577.5" style="font-family:chivo;font-size:30;font-weight:none;fill:rgb(54,21,44);text-anchor:end">24</text><text x="0" y="1622.5" style="font-family:chivo;font-size:30;font-weight:none;fill:rgb(54,21,44);">calamars</text><text x="935.4666666666666" y="1622.5" style="font-family:chivo;font-size:30;font-weight:none;fill:rgb(54,21,44);text-anchor:end">22.50</text><text x="0" y="1667.5" style="font-family:chivo;font-size:30;font-weight:none;fill:rgb(54,21,44);">tofu</text><text x="935.4666666666666" y="1667.5" style="font-family:chivo;font-size:30;font-weight:none;fill:rgb(54,21,44);text-anchor:end">20.50</text><text x="0" y="1732.5" style="font-family:chivo;font-size:30;font-weight:bold;fill:rgb(54,21,44);">Curry vert</text><text x="0" y="1777.5" style="font-family:chivo;font-size:30;font-weight:none;fill:rgb(54,21,44);">poulet</text><text x="935.4666666666666" y="1777.5" style="font-family:chivo;font-size:30;font-weight:none;fill:rgb(54,21,44);text-anchor:end">21.50</text><text x="0" y="1822.5" style="font-family:chivo;font-size:30;font-weight:none;fill:rgb(54,21,44);">porc</text><text x="935.4666666666666" y="1822.5" style="font-family:chivo;font-size:30;font-weight:none;fill:rgb(54,21,44);text-anchor:end">22</text><text x="0" y="1867.5" style="font-family:chivo;font-size:30;font-weight:none;fill:rgb(54,21,44);">boeuf</text><text x="935.4666666666666" y="1867.5" style="font-family:chivo;font-size:30;font-weight:none;fill:rgb(54,21,44);text-anchor:end">25</text><text x="0" y="1912.5" style="font-family:chivo;font-size:30;font-weight:none;fill:rgb(54,21,44);">crevettes</text><text x="935.4666666666666" y="1912.5" style="font-family:chivo;font-size:30;font-weight:none;fill:rgb(54,21,44);text-anchor:end">24</text><text x="0" y="1957.5" style="font-family:chivo;font-size:30;font-weight:none;fill:rgb(54,21,44);">calamars</text><text x="935.4666666666666" y="1957.5" style="font-family:chivo;font-size:30;font-weight:none;fill:rgb(54,21,44);text-anchor:end">22.50</text><text x="0" y="2002.5" style="font-family:chivo;font-size:30;font-weight:none;fill:rgb(54,21,44);">tofu</text><text x="935.4666666666666" y="2002.5" style="font-family:chivo;font-size:30;font-weight:none;fill:rgb(54,21,44);text-anchor:end">20.50</text><text x="0" y="2067.5" style="font-family:chivo;font-size:30;font-weight:bold;fill:rgb(54,21,44);">Curry rouge</text><text x="0" y="2112.5" style="font-family:chivo;font-size:30;font-weight:none;fill:rgb(54,21,44);">poulet</text><text x="935.4666666666666" y="2112.5" style="font-family:chivo;font-size:30;font-weight:none;fill:rgb(54,21,44);text-anchor:end">21.50</text><text x="0" y="2157.5" style="font-family:chivo;font-size:30;font-weight:none;fill:rgb(54,21,44);">porc</text><text x="935.4666666666666" y="2157.5" style="font-family:chivo;font-size:30;font-weight:none;fill:rgb(54,21,44);text-anchor:end">22</text><text x="0" y="2202.5" style="font-family:chivo;font-size:30;font-weight:none;fill:rgb(54,21,44);">boeuf</text><text x="935.4666666666666" y="2202.5" style="font-family:chivo;font-size:30;font-weight:none;fill:rgb(54,21,44);text-anchor:end">25</text><text x="0" y="2247.5" style="font-family:chivo;font-size:30;font-weight:none;fill:rgb(54,21,44);">crevettes</text><text x="935.4666666666666" y="2247.5" style="font-family:chivo;font-size:30;font-weight:none;fill:rgb(54,21,44);text-anchor:end">24</text><text x="0" y="2292.5" style="font-family:chivo;font-size:30;font-weight:none;fill:rgb(54,21,44);">calamars</text><text x="935.4666666666666" y="2292.5" style="font-family:chivo;font-size:30;font-weight:none;fill:rgb(54,21,44);text-anchor:end">22.50</text><text x="0" y="2337.5" style="font-family:chivo;font-size:30;font-weight:none;fill:rgb(54,21,44);">tofu</text><text x="935.4666666666666" y="2337.5" style="font-family:chivo;font-size:30;font-weight:none;fill:rgb(54,21,44);text-anchor:end">20.50</text><text x="0" y="2402.5" style="font-family:chivo;font-size:30;font-weight:bold;fill:rgb(54,21,44);">Portion de riz blanc</text><text x="935.4666666666666" y="2402.5" style="font-family:chivo;font-size:30;font-weight:none;fill:rgb(54,21,44);text-anchor:end">4</text><g id="logo" transform="translate(150,30) scale(1.3)"><g transform="translate(0,436)"><path id="logo-0" d="m 495.25649,-184.90374 c 0,135.488272 -109.83596,245.324219 -245.32424,245.324219 -135.48825,0 -245.3242108,-109.835947 -245.3242108,-245.324219 0,-135.48826 109.8359608,-245.32422 245.3242108,-245.32422 135.48828,0 245.32424,109.83596 245.32424,245.32422"  style="fill:rgb(54,21,44)"></path><path id="logo-1" d="M 68.349609 173.93359 L 68.349609 260.68945 L 79.193359 260.68945 L 79.193359 195.29688 L 117.04102 260.68945 L 127.88477 260.68945 L 127.88477 173.93359 L 117.04102 173.93359 L 117.04102 238.89062 L 79.410156 173.93359 L 68.349609 173.93359 z M 183.10352 174.51367 C 159.13717 174.51367 139.72461 193.92428 139.72461 217.89062 C 139.72461 241.85697 159.13717 261.26953 183.10352 261.26953 C 207.06986 261.26953 226.48047 241.85696 226.48047 217.89062 C 226.48047 193.92427 207.06986 174.51367 183.10352 174.51367 z M 396.80469 174.51367 L 396.80469 261.26953 L 440.29102 261.26953 L 440.29102 250.42383 L 407.64844 250.42383 L 407.64844 174.51367 L 396.80469 174.51367 z M 278.66016 174.98828 C 254.69382 174.98828 235.2832 194.40084 235.2832 218.36719 C 235.2832 242.33353 254.69382 261.74414 278.66016 261.74414 C 302.6265 261.74414 322.03906 242.33353 322.03906 218.36719 C 322.03906 194.40084 302.6265 174.98828 278.66016 174.98828 z M 332.31055 175.56836 L 332.31055 262.32422 L 343.15625 262.32422 C 367.12257 262.32422 386.5332 242.91361 386.5332 218.94727 C 386.5332 194.98093 367.12257 175.56836 343.15625 175.56836 L 332.31055 175.56836 z M 183.21094 185.35742 C 201.32124 185.35742 215.85352 199.88969 215.85352 218 C 215.85352 236.11031 201.32124 250.64062 183.21094 250.64062 C 165.10062 250.64062 150.56836 236.11031 150.56836 218 C 150.56836 199.88969 165.10062 185.35742 183.21094 185.35742 z M 278.76953 185.83398 C 296.87985 185.83398 311.41016 200.36431 311.41016 218.47461 C 311.41016 236.58494 296.87985 251.11719 278.76953 251.11719 C 260.65923 251.11719 246.12695 236.58494 246.12695 218.47461 C 246.12695 200.36431 260.65923 185.83398 278.76953 185.83398 z M 343.26367 186.41406 C 361.37399 186.41406 375.90625 200.94437 375.90625 219.05469 C 375.90625 237.16501 361.37399 251.69727 343.26367 251.69727 L 343.26367 186.41406 z "  transform="translate(0,-436)" style="fill:white"></path><path id="logo-2" d="M 421.43945 308.54297 L 307.33594 388.4707 C 266.95479 388.8755 220.45812 393.42457 193.91992 409.80078 C 153.7575 434.58277 188.76134 449.19822 213.29688 451.35742 C 196.0643 446.87081 143.91614 431.20662 212.28711 404.40625 C 212.28711 404.40625 248.87416 391.93057 292.78906 390.06641 C 261.66168 392.31948 230.83453 397.95788 211.07617 410.15039 C 170.91375 434.93237 205.91759 443.04197 230.45312 445.20117 C 213.22055 440.71456 161.07435 431.55623 229.44531 404.75586 C 229.44531 404.75586 262.83892 393.37152 304.11133 390.72852 L 242.70312 433.74414 C 242.70312 433.74414 241.50812 435.39021 244.13086 435.69727 L 272.86914 416.74609 L 313.29883 390.29688 C 317.31897 390.17781 321.38715 390.14154 325.49414 390.22461 C 325.49414 390.22461 331.66906 390.32944 333.79102 390.36328 L 274.10352 423.74023 L 257.83398 432.52344 C 256.8052 433.43484 258.35547 434.16602 258.35547 434.16602 L 344.16992 390.53516 C 351.07688 390.6507 355.91997 390.73619 364.39258 390.89453 C 367.89772 390.97111 371.8759 391.0507 374.625 391.12305 C 374.46614 391.10917 374.2464 391.09219 374.08398 391.07812 C 380.71627 391.21115 387.02853 391.34752 391.7832 391.47266 C 382.22768 390.63771 366.14253 389.48077 347.17383 389.00781 L 451.43359 335.99805 L 452.15625 333.20312 C 452.15625 333.20312 452.51729 332.44003 452.71289 332.02344 C 452.91042 331.60686 450.1877 328.20597 450.07031 327.55664 C 449.95296 326.90927 447.91797 326.54297 447.91797 326.54297 L 336.55273 388.81836 C 336.03414 388.81358 335.51384 388.8102 334.99219 388.80664 C 328.98346 388.61433 322.71798 388.46885 316.13672 388.44141 L 425.46289 316.92188 L 426.08203 313.5293 L 421.43945 308.54297 z "  transform="translate(0,-436)" style="fill:white"></path><path id="logo-3" d="m 322.22309,-142.7887 c -0.28079,-0.14328 -0.64933,-0.44938 -0.81899,-0.68056 -0.29379,-0.40007 -0.31046,-0.63834 -0.35172,-5.0256 l -0.0436,-4.60549 -0.67222,0 -0.67222,0 0.0452,-0.70726 0.0452,-0.70725 0.6329,0.049 0.63289,0.049 0,-1.39776 0,-1.39769 0.67401,-0.32727 c 0.37072,-0.18019 0.70585,-0.32735 0.74455,-0.32735 0.0381,0 0.0709,0.77915 0.0709,1.73152 l 0,1.73155 1.6161,-0.0669 1.61609,-0.067 -0.13315,0.59287 c -0.074,0.32626 -0.16803,0.64901 -0.21033,0.71754 -0.0421,0.0693 -0.70966,0.12434 -1.48286,0.12434 l -1.40584,0 0,4.17681 c 0,3.44369 0.039,4.25352 0.22612,4.61397 0.40108,0.77562 1.50728,0.77148 2.58557,-0.01 l 0.61319,-0.44399 -0.004,0.48471 c -0.004,0.80875 -0.30156,1.20432 -1.117,1.4835 -0.96355,0.33001 -1.95364,0.33218 -2.59291,0.006 z m 56.41789,-0.0814 c -2.52967,-0.71801 -3.88136,-3.09789 -3.67784,-6.47547 0.16523,-2.74003 1.50426,-4.69673 3.60084,-5.26126 0.99383,-0.26756 3.02445,-0.1108 3.85613,0.2979 0.96174,0.47218 1.1152,0.83261 0.70088,1.64477 l -0.3205,0.62829 -0.6459,-0.59528 c -1.72143,-1.58682 -4.1661,-1.01472 -5.15989,1.2074 -0.30002,0.67082 -0.34939,1.02118 -0.3515,2.49297 -0.004,2.40694 0.3451,3.36145 1.59415,4.36655 0.42367,0.34091 0.75156,0.46455 1.37048,0.51556 1.14587,0.095 1.74191,-0.049 2.62237,-0.64387 0.42149,-0.28328 0.7931,-0.51556 0.82583,-0.51556 0.0319,0 0.0592,0.32462 0.0592,0.72151 0,0.81438 -0.18868,1.05949 -1.11272,1.44556 -0.77446,0.32346 -2.51297,0.41192 -3.36187,0.17109 z m -14.42604,-0.21655 c -0.28086,-0.14328 -0.64932,-0.44936 -0.819,-0.68047 -0.29378,-0.40008 -0.31045,-0.63834 -0.35172,-5.02565 l -0.0437,-4.60545 -0.6722,0 -0.67222,0 0.0459,-0.70732 0.0452,-0.70726 0.63289,0.049 0.63281,0.049 0,-1.39775 0,-1.3978 0.67409,-0.32736 c 0.37072,-0.18018 0.70577,-0.32734 0.74448,-0.32734 0.0381,0 0.0709,0.77922 0.0709,1.73155 l 0,1.73156 1.61608,-0.0669 1.61607,-0.067 -0.13314,0.59286 c -0.074,0.32627 -0.16804,0.64902 -0.21032,0.71746 -0.0421,0.0693 -0.70967,0.12489 -1.48286,0.12489 l -1.40584,0 0,4.17681 c 0,3.44375 0.039,4.25356 0.22612,4.61397 0.40108,0.77562 1.50729,0.77148 2.58557,-0.01 l 0.6132,-0.444 -0.004,0.48472 c -0.004,0.80873 -0.30157,1.20432 -1.117,1.48352 -0.96354,0.32999 -1.95364,0.33217 -2.59291,0.006 z m -53.59939,-0.0592 c -0.76798,-0.22092 -1.19441,-0.55862 -1.55095,-1.22853 -0.30726,-0.57714 -0.32891,-0.85123 -0.40085,-5.07732 -0.0421,-2.45699 -0.13129,-4.55247 -0.1988,-4.65674 -0.0876,-0.13525 0.11655,-0.29519 0.71154,-0.55846 0.45878,-0.20299 0.86573,-0.36908 0.90433,-0.36908 0.0381,0 0.0724,1.96002 0.0747,4.35555 10e-4,2.39553 0.0638,4.61738 0.13845,4.9374 0.2128,0.91756 0.72446,1.32219 1.76693,1.39765 1.07359,0.0778 2.2079,-0.22854 3.2143,-0.86818 l 0.73046,-0.464 -0.10276,-4.16575 c -0.0561,-2.29116 -0.14234,-4.36325 -0.19077,-4.60468 l -0.0878,-0.43917 0.94928,0 0.94928,-4e-5 0,5.63594 0,5.63596 -0.74455,0.30453 -0.74448,0.30453 -0.0459,-0.50535 c -0.0537,-0.58593 -0.13503,-0.60789 -0.80148,-0.21498 -1.10611,0.65189 -3.33612,0.93519 -4.56959,0.58056 z m 32.81623,0.0319 c -2.53394,-0.61288 -3.95603,-3.11009 -3.76038,-6.60317 0.12724,-2.27325 0.93643,-3.88202 2.41086,-4.79362 0.9183,-0.56772 2.54135,-0.70858 3.58279,-0.311 1.16176,0.44345 2.08139,1.83506 2.3734,3.59088 l 0.10048,0.60478 -3.39413,1.08104 c -1.86677,0.59459 -3.41205,1.09895 -3.43392,1.12083 -0.11907,0.11895 0.31738,1.76178 0.64855,2.44085 0.93289,1.91345 3.39675,2.23933 5.12511,0.6779 l 0.55448,-0.50098 0.38263,0.5016 0.38263,0.50146 -0.40162,0.36855 c -1.31113,1.20338 -3.01719,1.69615 -4.57104,1.32028 z m 0.44679,-7.38855 c 1.22845,-0.39346 2.29509,-0.76831 2.37027,-0.83317 0.20191,-0.17426 -0.15549,-1.22988 -0.59224,-1.74877 -0.20518,-0.24365 -0.60993,-0.52154 -0.89919,-0.61709 -1.5896,-0.52427 -3.0486,0.90671 -3.40306,3.33861 -0.0839,0.57605 -0.0638,0.71209 0.0923,0.65182 0.109,-0.0436 1.20348,-0.39782 2.43197,-0.79148 z m 53.20338,-0.216 0.0437,-7.74323 -2.12917,0 c -1.17109,0 -2.35888,0.0653 -2.63957,0.146 -0.2807,0.0807 -0.53135,0.12536 -0.55696,0.0999 -0.0257,-0.0272 0.06,-0.35981 0.19053,-0.74276 0.16414,-0.48198 0.33583,-0.719 0.55798,-0.77048 0.46712,-0.10803 11.86128,-0.16391 11.86117,-0.0577 0,0.24263 -0.36635,1.11519 -0.50846,1.21119 -0.0888,0.06 -1.25395,0.1108 -2.58892,0.11176 l -2.42718,0.004 0.0444,7.74328 0.0444,7.74323 -0.96788,0 -0.9679,0 0.0437,-7.74323 z m 23.17983,7.46325 c -1.36204,-0.61872 -1.97572,-2.07791 -1.54186,-3.66617 0.4341,-1.58953 1.9834,-2.53285 4.71754,-2.87252 l 0.85097,-0.10588 0.0475,-0.89342 c 0.0677,-1.28919 -0.0936,-2.14466 -0.47801,-2.52895 -0.75685,-0.75685 -2.86341,-0.59224 -4.05439,0.31699 -0.37468,0.286 -0.69838,0.49881 -0.71916,0.47272 -0.21336,-0.26808 -0.3511,-1.08842 -0.22286,-1.32801 0.42304,-0.79057 2.79463,-1.40214 4.52301,-1.16631 0.92768,0.12646 1.42804,0.40763 1.93728,1.08925 0.28888,0.38645 0.3113,0.66342 0.38146,4.68142 0.0763,4.36456 0.10456,4.57832 0.70251,5.2648 0.19598,0.22527 0.15549,0.29099 -0.40974,0.66475 l -0.62713,0.41518 -0.35312,-0.44127 c -0.19427,-0.24263 -0.35351,-0.52543 -0.35405,-0.62752 0,-0.27245 -0.21483,-0.22736 -0.51906,0.10852 -0.38099,0.42125 -1.75455,0.8971 -2.57705,0.89325 -0.38597,-0.001 -0.97251,-0.12591 -1.30351,-0.2769 z m 3.19365,-1.49702 c 0.69005,-0.49126 0.90745,-1.11698 0.90745,-2.61108 l 0,-1.27046 -0.48393,0.004 c -0.72415,0.004 -2.09714,0.35881 -2.66326,0.68967 -0.73201,0.42771 -1.17112,1.15892 -1.17112,1.95083 0,0.55963 0.0815,0.74456 0.5235,1.18646 0.50605,0.5059 0.55455,0.52155 1.45816,0.464 0.67628,-0.0436 1.07139,-0.15682 1.42915,-0.41144 z m -95.46667,-6.41625 c 0.0249,-4.68338 -0.0147,-8.2551 -0.0959,-8.54886 -0.13899,-0.50316 -0.13736,-0.50535 0.60945,-0.81572 0.41176,-0.171 0.80678,-0.311 0.87774,-0.311 0.0717,0 0.12888,1.5412 0.12888,3.42485 0,1.88369 0.0421,3.42484 0.0934,3.42484 0.0506,0 0.53432,-0.21717 1.07314,-0.48254 0.90646,-0.44617 1.09168,-0.48253 2.47526,-0.48417 1.29931,-0.001 1.59316,0.049 2.24003,0.37072 0.57792,0.2888 0.8179,0.52217 1.07241,1.04229 0.31443,0.64256 0.32976,0.87056 0.37228,5.54693 l 0.0444,4.87679 -0.91067,-6e-5 -0.91069,-1e-4 0.12241,-0.6329 c 0.2065,-1.06736 0.16071,-8.61464 -0.0546,-9.04609 -0.32174,-0.64395 -1.07692,-0.92396 -2.26656,-0.84049 -1.11743,0.079 -1.83735,0.32564 -2.79433,0.95876 l -0.60151,0.39781 0.0939,4.24629 c 0.0514,2.33544 0.13664,4.39701 0.18897,4.58128 0.0915,0.32237 0.0584,0.3349 -0.85294,0.3349 l -0.94804,7e-5 0.0437,-8.04436 z m 22.6384,3.06902 c 0.0288,-3.05648 -0.01,-5.1861 -0.10288,-5.5217 l -0.15098,-0.54623 0.81457,-0.36037 c 0.44788,-0.19817 0.84612,-0.36035 0.88476,-0.36035 0.0381,0 0.0709,0.23452 0.0709,0.52107 0,0.28663 0.0249,0.52108 0.0553,0.52108 0.0303,0 0.35141,-0.16508 0.71264,-0.36745 2.1879,-1.22287 5.19812,-0.98183 6.11299,0.48954 0.37282,0.59965 0.36363,0.44617 0.45115,7.50927 l 0.0381,3.08986 -0.92695,0 -0.92693,-6e-5 0.106,-0.48417 c 0.0577,-0.26598 0.10695,-2.3602 0.10803,-4.65336 0.004,-4.73452 -0.0421,-4.95679 -1.06141,-5.29313 -1.15287,-0.38054 -3.13706,0.0842 -4.2079,0.98512 l -0.50402,0.42382 0.0807,4.25004 c 0.0444,2.33751 0.12816,4.36726 0.18593,4.51061 0.0935,0.23173 8.4e-4,0.26053 -0.84137,0.26053 l -0.94658,1.1e-4 0.0475,-4.97544 z m 55.98463,-3.06902 c 0.0249,-4.68338 -0.0163,-8.2551 -0.0959,-8.54886 -0.139,-0.50316 -0.13736,-0.50535 0.60945,-0.81572 0.41176,-0.171 0.80677,-0.311 0.87775,-0.311 0.0716,0 0.12887,1.5412 0.12887,3.42485 0,1.88369 0.0421,3.42484 0.0934,3.42484 0.0513,0 0.53432,-0.21717 1.07315,-0.48254 0.90643,-0.44617 1.09164,-0.48253 2.47525,-0.48417 1.29932,-0.001 1.59315,0.049 2.23999,0.37072 0.57792,0.2888 0.81793,0.52217 1.07246,1.04229 0.31442,0.64256 0.32975,0.87056 0.37219,5.54693 l 0.0444,4.87679 -0.91066,-6e-5 -0.91069,-1e-4 0.1224,-0.6329 c 0.20651,-1.06736 0.16073,-8.61464 -0.0546,-9.04609 -0.32174,-0.64395 -1.07693,-0.92396 -2.26654,-0.84049 -1.11745,0.079 -1.83736,0.32564 -2.79434,0.95876 l -0.60151,0.39781 0.0939,4.24629 c 0.0514,2.33544 0.13664,4.39701 0.18897,4.58128 0.0915,0.32237 0.0584,0.3349 -0.85294,0.3349 l -0.94803,7e-5 0.0437,-8.04436 z m -114.26719,7.56032 c 0.0366,-0.18462 0.10911,-0.80414 0.15908,-1.37741 0.35054,-4.01375 2.13614,-8.41989 5.06806,-12.50639 0.44858,-0.6251 0.81555,-1.17641 0.81555,-1.22487 0,-0.049 -0.74456,-0.0436 -1.65469,0.006 l -1.65468,0.0945 0.0947,-0.33272 c 0.0522,-0.1829 0.1351,-0.51679 0.18431,-0.74199 l 0.0896,-0.40925 3.18103,0 3.18103,0 0.5045,1.0051 c 1.79885,3.58427 3.37088,10.47381 3.37088,14.77317 l 0,1.04822 -1.00511,-1.2e-4 -1.00514,-1.5e-4 0,-2.86623 c 0,-1.57644 -0.0483,-2.98457 -0.1078,-3.12915 -0.10012,-0.24364 -0.41283,-0.25999 -4.31832,-0.22316 l -4.21043,0.0374 -0.33677,1.34017 c -0.34822,1.38603 -0.50068,3.68825 -0.29331,4.43002 l 0.11451,0.40926 -1.12247,0 c -1.08498,0 -1.12021,-0.01 -1.05438,-0.33491 z m 10.90051,-7.51983 c -0.0421,-0.14328 -0.21655,-0.86366 -0.38801,-1.60081 -0.40521,-1.74137 -0.77946,-2.95795 -1.43155,-4.6533 -0.44609,-1.1598 -0.58095,-1.37632 -0.85328,-1.37033 -0.59871,0.0163 -2.61652,2.87832 -4.08162,5.79573 -0.51283,1.02124 -0.93246,1.90904 -0.93246,1.97304 0,0.0638 1.74674,0.11619 3.88162,0.11619 3.62658,0 3.87663,-0.0163 3.80538,-0.26046 z m 67.58563,2.60592 c 0,-2.88697 -0.0335,-5.3713 -0.0747,-5.52072 -0.0592,-0.21655 0.10456,-0.34525 0.80671,-0.63266 0.48463,-0.19872 0.90045,-0.34191 0.92399,-0.31808 0.0234,0.0218 0.0623,2.67034 0.0869,5.88177 l 0.0437,5.83895 -0.89344,-5e-5 -0.89345,0 0,-5.24905 z m 58.66942,-0.32291 0,-5.57207 0.7893,-0.32734 c 0.43409,-0.18019 0.81641,-0.30009 0.84957,-0.26708 0.0327,0.0319 0.0799,2.68787 0.10407,5.89929 l 0.0436,5.83892 -0.89343,-6e-5 -0.89345,-1.2e-4 0,-5.57206 z m -1.56616,-8.83467 c -0.5692,-0.72352 -0.0812,-1.97309 0.77048,-1.97309 0.48183,0 1.0191,0.66373 1.0191,1.25897 0,1.0665 -1.15107,1.52579 -1.78956,0.71411 z m 3.3615,0.079 c -0.37772,-0.53944 -0.30017,-1.38054 0.16056,-1.74295 0.50246,-0.39517 0.68966,-0.38801 1.19262,0.0436 0.49796,0.42826 0.56196,1.25163 0.13416,1.72434 -0.38317,0.42328 -1.18243,0.40919 -1.48732,-0.0272 z m -60.13033,-0.89752 c -0.13409,-0.10204 -0.28724,-0.36698 -0.34058,-0.58812 -0.0755,-0.31155 -0.012,-0.48744 0.28288,-0.78181 0.43628,-0.43636 0.78348,-0.47715 1.25361,-0.14818 0.41729,0.292 0.44983,1.10352 0.0584,1.45758 -0.32275,0.292 -0.91387,0.3208 -1.25459,0.0599 z"  style="fill:white"></path><path id="logo-4" d="m 474.11137,-182.78591 c 0,123.413098 -100.04521,223.458303 -223.45834,223.458303 -123.41314,0 -223.458314,-100.045205 -223.458314,-223.458303 0,-123.41317 100.045174,-223.45837 223.458314,-223.45837 123.41313,0 223.45834,100.0452 223.45834,223.45837 z"  style="fill:none;stroke:white;stroke-width:3"></path></g></g></g><g transform="translate(2455.6,0)"><text x="467.7333333333333" y="150" style="font-family:chivo;font-size:70;text-anchor:middle;font-weight:bold;fill:rgb(54,21,44)">Nouilles en soupe</text><text x="0" y="265" style="font-family:chivo;font-size:30;font-weight:bold;fill:rgb(54,21,44);">Curry vert</text><text x="0" y="310" style="font-family:chivo;font-size:30;font-weight:none;fill:rgb(54,21,44);">poulet</text><text x="935.4666666666666" y="310" style="font-family:chivo;font-size:30;font-weight:none;fill:rgb(54,21,44);text-anchor:end">21.50</text><text x="0" y="355" style="font-family:chivo;font-size:30;font-weight:none;fill:rgb(54,21,44);">porc</text><text x="935.4666666666666" y="355" style="font-family:chivo;font-size:30;font-weight:none;fill:rgb(54,21,44);text-anchor:end">22</text><text x="0" y="400" style="font-family:chivo;font-size:30;font-weight:none;fill:rgb(54,21,44);">boeuf</text><text x="935.4666666666666" y="400" style="font-family:chivo;font-size:30;font-weight:none;fill:rgb(54,21,44);text-anchor:end">25</text><text x="0" y="445" style="font-family:chivo;font-size:30;font-weight:none;fill:rgb(54,21,44);">crevettes</text><text x="935.4666666666666" y="445" style="font-family:chivo;font-size:30;font-weight:none;fill:rgb(54,21,44);text-anchor:end">24</text><text x="0" y="490" style="font-family:chivo;font-size:30;font-weight:none;fill:rgb(54,21,44);">calamars</text><text x="935.4666666666666" y="490" style="font-family:chivo;font-size:30;font-weight:none;fill:rgb(54,21,44);text-anchor:end">22.50</text><text x="0" y="535" style="font-family:chivo;font-size:30;font-weight:none;fill:rgb(54,21,44);">tofu</text><text x="935.4666666666666" y="535" style="font-family:chivo;font-size:30;font-weight:none;fill:rgb(54,21,44);text-anchor:end">20.50</text><text x="0" y="600" style="font-family:chivo;font-size:30;font-weight:bold;fill:rgb(54,21,44);">Curry rouge</text><text x="0" y="645" style="font-family:chivo;font-size:30;font-weight:none;fill:rgb(54,21,44);">poulet</text><text x="935.4666666666666" y="645" style="font-family:chivo;font-size:30;font-weight:none;fill:rgb(54,21,44);text-anchor:end">21.50</text><text x="0" y="690" style="font-family:chivo;font-size:30;font-weight:none;fill:rgb(54,21,44);">porc</text><text x="935.4666666666666" y="690" style="font-family:chivo;font-size:30;font-weight:none;fill:rgb(54,21,44);text-anchor:end">22</text><text x="0" y="735" style="font-family:chivo;font-size:30;font-weight:none;fill:rgb(54,21,44);">boeuf</text><text x="935.4666666666666" y="735" style="font-family:chivo;font-size:30;font-weight:none;fill:rgb(54,21,44);text-anchor:end">25</text><text x="0" y="780" style="font-family:chivo;font-size:30;font-weight:none;fill:rgb(54,21,44);">crevettes</text><text x="935.4666666666666" y="780" style="font-family:chivo;font-size:30;font-weight:none;fill:rgb(54,21,44);text-anchor:end">24</text><text x="0" y="825" style="font-family:chivo;font-size:30;font-weight:none;fill:rgb(54,21,44);">calamars</text><text x="935.4666666666666" y="825" style="font-family:chivo;font-size:30;font-weight:none;fill:rgb(54,21,44);text-anchor:end">22.50</text><text x="0" y="870" style="font-family:chivo;font-size:30;font-weight:none;fill:rgb(54,21,44);">tofu</text><text x="935.4666666666666" y="870" style="font-family:chivo;font-size:30;font-weight:none;fill:rgb(54,21,44);text-anchor:end">20.50</text><text x="0" y="935" style="font-family:chivo;font-size:30;font-weight:bold;fill:rgb(54,21,44);">Curry jaune</text><path d="m 14.991193,141.35332 c -10.5827801,-3.75251 -10.5274501,-4.56719 0.51791,-7.62387 23.35466,-6.46317 40.33945,-20.5823 57.27005,-47.607489 12.43151,-19.84359 22.55888,-31.3484 29.626327,-33.65587 12.05762,-3.9367 27.40164,5.55004 31.17502,19.27454 2.60811,9.48619 -1.07526,19.61067 -11.11019,30.538609 -11.99436,13.06173 -36.748977,28.56253 -59.673167,37.36602 -9.75784,3.74728 -39.09858,4.79556 -47.80595,1.70806 z m 56.84651,-33.91904 c 3.67126,-3.52154 9.70319,-11.027149 13.40427,-16.679149 7.87977,-12.03333 21.675777,-26.27442 26.814937,-27.68 4.64727,-1.27104 4.55787,-2.88144 -0.29373,-5.29032 -8.13274,-4.03801 -17.090167,3.01725 -26.900307,21.18782 -6.82869,12.64828 -21.95985,31.250399 -33.23327,40.856689 -5.04567,4.29953 -4.91326,4.27485 4.16079,-0.7757 5.15477,-2.8691 12.37607,-8.09781 16.04731,-11.61934 z M 137.27741,65.790811 c -1.85836,-6.38061 -8.3716,-13.00307 -14.65655,-14.90237 l -6.21957,-1.87953 4.46701,-2.18212 c 2.45686,-1.20018 6.56973,-2.03641 9.13971,-1.85831 2.56997,0.17809 5.71746,-0.62108 6.99441,-1.77594 4.35963,-3.94283 7.35382,-15.68761 6.66087,-26.12733 -0.64577,-9.7285996 -0.6241,-9.7916296 3.36617,-9.7916296 4.44744,0 5.79694,3.0415396 5.83211,13.1444196 0.0307,8.79953 -2.76298,16.19933 -8.66656,22.95626 -4.13693,4.73492 -4.91786,6.51426 -3.52517,8.03192 2.39617,2.61117 2.18945,11.13571 -0.35888,14.79903 -1.96426,2.82371 -2.09567,2.80575 -3.03355,-0.4144 z" transform="translate(-70,900) scale(0.3)" fill="rgb(54,21,44)"></path><text x="0" y="980" style="font-family:chivo;font-size:30;font-weight:none;fill:rgb(54,21,44);">poulet</text><text x="935.4666666666666" y="980" style="font-family:chivo;font-size:30;font-weight:none;fill:rgb(54,21,44);text-anchor:end">21.50</text><text x="0" y="1025" style="font-family:chivo;font-size:30;font-weight:none;fill:rgb(54,21,44);">boeuf</text><text x="935.4666666666666" y="1025" style="font-family:chivo;font-size:30;font-weight:none;fill:rgb(54,21,44);text-anchor:end">25</text><text x="0" y="1070" style="font-family:chivo;font-size:30;font-weight:none;fill:rgb(54,21,44);">tofu</text><text x="935.4666666666666" y="1070" style="font-family:chivo;font-size:30;font-weight:none;fill:rgb(54,21,44);text-anchor:end">20.50</text><text x="0" y="1135" style="font-family:chivo;font-size:30;font-weight:bold;fill:rgb(54,21,44);">Chang Maï</text><text x="0" y="1172.5" style="font-family:chivo;font-size:25;font-weight:italic;fill:rgb(54,21,44);">spécialité du Nord de la Thaïlande</text><text x="0" y="1217.5" style="font-family:chivo;font-size:30;font-weight:none;fill:rgb(54,21,44);">poulet</text><text x="935.4666666666666" y="1217.5" style="font-family:chivo;font-size:30;font-weight:none;fill:rgb(54,21,44);text-anchor:end">21.50</text><text x="0" y="1262.5" style="font-family:chivo;font-size:30;font-weight:none;fill:rgb(54,21,44);">boeuf</text><text x="935.4666666666666" y="1262.5" style="font-family:chivo;font-size:30;font-weight:none;fill:rgb(54,21,44);text-anchor:end">25</text><text x="0" y="1307.5" style="font-family:chivo;font-size:30;font-weight:none;fill:rgb(54,21,44);">tofu</text><text x="935.4666666666666" y="1307.5" style="font-family:chivo;font-size:30;font-weight:none;fill:rgb(54,21,44);text-anchor:end">20.50</text><text x="0" y="1372.5" style="font-family:chivo;font-size:30;font-weight:bold;fill:rgb(54,21,44);">Tom yum</text><path d="m 14.991193,141.35332 c -10.5827801,-3.75251 -10.5274501,-4.56719 0.51791,-7.62387 23.35466,-6.46317 40.33945,-20.5823 57.27005,-47.607489 12.43151,-19.84359 22.55888,-31.3484 29.626327,-33.65587 12.05762,-3.9367 27.40164,5.55004 31.17502,19.27454 2.60811,9.48619 -1.07526,19.61067 -11.11019,30.538609 -11.99436,13.06173 -36.748977,28.56253 -59.673167,37.36602 -9.75784,3.74728 -39.09858,4.79556 -47.80595,1.70806 z m 56.84651,-33.91904 c 3.67126,-3.52154 9.70319,-11.027149 13.40427,-16.679149 7.87977,-12.03333 21.675777,-26.27442 26.814937,-27.68 4.64727,-1.27104 4.55787,-2.88144 -0.29373,-5.29032 -8.13274,-4.03801 -17.090167,3.01725 -26.900307,21.18782 -6.82869,12.64828 -21.95985,31.250399 -33.23327,40.856689 -5.04567,4.29953 -4.91326,4.27485 4.16079,-0.7757 5.15477,-2.8691 12.37607,-8.09781 16.04731,-11.61934 z M 137.27741,65.790811 c -1.85836,-6.38061 -8.3716,-13.00307 -14.65655,-14.90237 l -6.21957,-1.87953 4.46701,-2.18212 c 2.45686,-1.20018 6.56973,-2.03641 9.13971,-1.85831 2.56997,0.17809 5.71746,-0.62108 6.99441,-1.77594 4.35963,-3.94283 7.35382,-15.68761 6.66087,-26.12733 -0.64577,-9.7285996 -0.6241,-9.7916296 3.36617,-9.7916296 4.44744,0 5.79694,3.0415396 5.83211,13.1444196 0.0307,8.79953 -2.76298,16.19933 -8.66656,22.95626 -4.13693,4.73492 -4.91786,6.51426 -3.52517,8.03192 2.39617,2.61117 2.18945,11.13571 -0.35888,14.79903 -1.96426,2.82371 -2.09567,2.80575 -3.03355,-0.4144 z" transform="translate(-70,1337.5) scale(0.3)" fill="rgb(54,21,44)"></path><text x="0" y="1410" style="font-family:chivo;font-size:25;font-weight:italic;fill:rgb(54,21,44);">Au lait de coco et à la citronelle</text><text x="0" y="1455" style="font-family:chivo;font-size:30;font-weight:none;fill:rgb(54,21,44);">poulet</text><text x="935.4666666666666" y="1455" style="font-family:chivo;font-size:30;font-weight:none;fill:rgb(54,21,44);text-anchor:end">21.50</text><text x="0" y="1500" style="font-family:chivo;font-size:30;font-weight:none;fill:rgb(54,21,44);">crevettes</text><text x="935.4666666666666" y="1500" style="font-family:chivo;font-size:30;font-weight:none;fill:rgb(54,21,44);text-anchor:end">24</text><text x="0" y="1545" style="font-family:chivo;font-size:30;font-weight:none;fill:rgb(54,21,44);">calamars</text><text x="935.4666666666666" y="1545" style="font-family:chivo;font-size:30;font-weight:none;fill:rgb(54,21,44);text-anchor:end">22.50</text><text x="0" y="1590" style="font-family:chivo;font-size:30;font-weight:none;fill:rgb(54,21,44);">tofu</text><text x="935.4666666666666" y="1590" style="font-family:chivo;font-size:30;font-weight:none;fill:rgb(54,21,44);text-anchor:end">20.50</text><text x="0" y="1655" style="font-family:chivo;font-size:30;font-weight:bold;fill:rgb(54,21,44);">Tom kha</text><text x="0" y="1692.5" style="font-family:chivo;font-size:25;font-weight:italic;fill:rgb(54,21,44);">Au lait de coco et au galanga</text><text x="0" y="1737.5" style="font-family:chivo;font-size:30;font-weight:none;fill:rgb(54,21,44);">poulet</text><text x="935.4666666666666" y="1737.5" style="font-family:chivo;font-size:30;font-weight:none;fill:rgb(54,21,44);text-anchor:end">21.50</text><text x="0" y="1782.5" style="font-family:chivo;font-size:30;font-weight:none;fill:rgb(54,21,44);">crevettes</text><text x="935.4666666666666" y="1782.5" style="font-family:chivo;font-size:30;font-weight:none;fill:rgb(54,21,44);text-anchor:end">24</text><text x="0" y="1827.5" style="font-family:chivo;font-size:30;font-weight:none;fill:rgb(54,21,44);">calamars</text><text x="935.4666666666666" y="1827.5" style="font-family:chivo;font-size:30;font-weight:none;fill:rgb(54,21,44);text-anchor:end">22.50</text><text x="0" y="1872.5" style="font-family:chivo;font-size:30;font-weight:none;fill:rgb(54,21,44);">tofu</text><text x="935.4666666666666" y="1872.5" style="font-family:chivo;font-size:30;font-weight:none;fill:rgb(54,21,44);text-anchor:end">20.50</text><text x="0" y="1937.5" style="font-family:chivo;font-size:30;font-weight:bold;fill:rgb(54,21,44);">Sukhothai</text><text x="0" y="1975" style="font-family:chivo;font-size:25;font-weight:italic;fill:rgb(54,21,44);">Soupe claire aux herbes (idéale pour les régimes)</text><text x="0" y="2020" style="font-family:chivo;font-size:30;font-weight:none;fill:rgb(54,21,44);">poulet</text><text x="935.4666666666666" y="2020" style="font-family:chivo;font-size:30;font-weight:none;fill:rgb(54,21,44);text-anchor:end">21.50</text><text x="0" y="2065" style="font-family:chivo;font-size:30;font-weight:none;fill:rgb(54,21,44);">porc</text><text x="935.4666666666666" y="2065" style="font-family:chivo;font-size:30;font-weight:none;fill:rgb(54,21,44);text-anchor:end">22</text><text x="0" y="2110" style="font-family:chivo;font-size:30;font-weight:none;fill:rgb(54,21,44);">boeuf</text><text x="935.4666666666666" y="2110" style="font-family:chivo;font-size:30;font-weight:none;fill:rgb(54,21,44);text-anchor:end">25</text><text x="0" y="2155" style="font-family:chivo;font-size:30;font-weight:none;fill:rgb(54,21,44);">crevettes</text><text x="935.4666666666666" y="2155" style="font-family:chivo;font-size:30;font-weight:none;fill:rgb(54,21,44);text-anchor:end">24</text><text x="0" y="2200" style="font-family:chivo;font-size:30;font-weight:none;fill:rgb(54,21,44);">calamars</text><text x="935.4666666666666" y="2200" style="font-family:chivo;font-size:30;font-weight:none;fill:rgb(54,21,44);text-anchor:end">22.50</text><text x="0" y="2245" style="font-family:chivo;font-size:30;font-weight:none;fill:rgb(54,21,44);">tofu</text><text x="935.4666666666666" y="2245" style="font-family:chivo;font-size:30;font-weight:none;fill:rgb(54,21,44);text-anchor:end">20.50</text><path d="m 14.991193,141.35332 c -10.5827801,-3.75251 -10.5274501,-4.56719 0.51791,-7.62387 23.35466,-6.46317 40.33945,-20.5823 57.27005,-47.607489 12.43151,-19.84359 22.55888,-31.3484 29.626327,-33.65587 12.05762,-3.9367 27.40164,5.55004 31.17502,19.27454 2.60811,9.48619 -1.07526,19.61067 -11.11019,30.538609 -11.99436,13.06173 -36.748977,28.56253 -59.673167,37.36602 -9.75784,3.74728 -39.09858,4.79556 -47.80595,1.70806 z m 56.84651,-33.91904 c 3.67126,-3.52154 9.70319,-11.027149 13.40427,-16.679149 7.87977,-12.03333 21.675777,-26.27442 26.814937,-27.68 4.64727,-1.27104 4.55787,-2.88144 -0.29373,-5.29032 -8.13274,-4.03801 -17.090167,3.01725 -26.900307,21.18782 -6.82869,12.64828 -21.95985,31.250399 -33.23327,40.856689 -5.04567,4.29953 -4.91326,4.27485 4.16079,-0.7757 5.15477,-2.8691 12.37607,-8.09781 16.04731,-11.61934 z M 137.27741,65.790811 c -1.85836,-6.38061 -8.3716,-13.00307 -14.65655,-14.90237 l -6.21957,-1.87953 4.46701,-2.18212 c 2.45686,-1.20018 6.56973,-2.03641 9.13971,-1.85831 2.56997,0.17809 5.71746,-0.62108 6.99441,-1.77594 4.35963,-3.94283 7.35382,-15.68761 6.66087,-26.12733 -0.64577,-9.7285996 -0.6241,-9.7916296 3.36617,-9.7916296 4.44744,0 5.79694,3.0415396 5.83211,13.1444196 0.0307,8.79953 -2.76298,16.19933 -8.66656,22.95626 -4.13693,4.73492 -4.91786,6.51426 -3.52517,8.03192 2.39617,2.61117 2.18945,11.13571 -0.35888,14.79903 -1.96426,2.82371 -2.09567,2.80575 -3.03355,-0.4144 z" transform="translate(300,2320) scale(0.3)" fill="rgb(54,21,44)"></path><text x="400" y="2355" style="font-family:chivo;font-size:30;font-weight:bold;fill:rgb(54,21,44);">Épicé</text><path d="m 47.081623,9.2729714 c -9.06253,0 -11.34962,0.36348 -16.78379,2.6699196 -8.0254,3.40624 -15.71177,10.36799 -19.4736,17.63477 -2.5472201,4.9205 -2.9486501,6.98943 -2.9486501,15.19531 0,8.92004 0.22987,9.88528 3.7791101,15.8125 5.6874,9.49794 12.24552,14.27944 25.0797,18.28516 19.11429,5.96583 23.75296,10.33986 28.81567,27.167969 1.52807,5.07925 3.91926,11.25937 5.31274,13.73437 4.1998,7.45944 13.75785,14.65543 23.96237,18.03906 9.054267,3.00223 23.577877,2.28151 32.286297,-1.60156 8.39254,-3.74221 17.11229,-11.60649 21.16687,-19.08984 2.8763,-5.30866 3.16867,-6.81368 3.16867,-16.34766 0,-9.471519 -0.30201,-11.056769 -3.08671,-16.191409 -4.04387,-7.45639 -11.97483,-15.34268 -18.33037,-18.22851 -2.79874,-1.2708 -10.24804,-3.75364 -16.55299,-5.51563 -6.30494,-1.76198 -13.31129,-4.25812 -15.569377,-5.54882 -4.47565,-2.55829 -8.76639,-9.43636 -13.88045,-22.2461 -3.59999,-9.01732 -9.98109,-15.68114 -19.48223,-20.3457 -6.546,-3.2137296 -7.612,-3.4238296 -17.46326,-3.4238296 z M 27.972573,22.896021 c 4.60045,-0.14686 8.29121,5.52963 4.1199,9.30664 -0.95451,0.86429 -2.65751,1.57031 -3.78557,1.57031 -5.24599,0 -7.75499,-6.83557 -3.5785,-9.75 1.07314,-0.74886 2.18251,-1.09306 3.24417,-1.12695 z m 11.36966,13.96679 c 0.19271,-0.006 0.38584,-0.004 0.57808,0.006 3.38332,0.18165 6.58495,2.86426 5.66219,6.19336 -0.85118,3.07077 -5.04494,4.8841 -7.95942,3.44141 -4.14398,-2.0513 -5.01155,-5.48562 -2.05996,-8.1582 1.08761,-0.98481 2.43013,-1.43935 3.77911,-1.48243 z m -17.6617,1.91016 c 1.57928,0 3.46651,0.54117 4.19541,1.20117 2.19669,1.98904 1.57598,6.52719 -1.12813,8.24219 -1.34998,0.85618 -2.73018,1.55664 -3.06728,1.55664 -2.24,0 -5.52198,-3.47971 -5.52198,-5.85547 0,-3.44143 1.82716,-5.14453 5.52198,-5.14453 z" transform="translate(300,2400) scale(0.3)" fill="rgb(54,21,44)"></path><text x="400" y="2435" style="font-family:chivo;font-size:30;font-weight:bold;fill:rgb(54,21,44);">Contient des arachides</text></g></svg>