<svg width="2362" height="2303"><rect x="0" y="0" width="2362" height="2303" fill="lightgrey"></rect><circle cx="1181" cy="1151.5" r="1181" fill="white"></circle><rect x="1181" y="0" width="2362" height="2303" fill="white"></rect><g id="text" style="font-family:chivo;font-size:50;" transform="translate(0, 200)" ><text x="1181" y="130" text-anchor="middle" fill="rgb(54,21,44)">Les nouilles sont le plat le plus </text><text x="1181" y="180" text-anchor="middle" fill="rgb(54,21,44)">populaire de Thaïlande. C'est un plat complet </text><text x="1181" y="230" text-anchor="middle" fill="rgb(54,21,44)">et délicieux. </text><text x="1181" y="300" text-anchor="middle" fill="rgb(54,21,44)">Ici vous pouvez déguster les </text><text x="1181" y="350" text-anchor="middle" fill="rgb(54,21,44)">nouilles en soupes diverses, à la poële ou </text><text x="1181" y="400" text-anchor="middle" fill="rgb(54,21,44)">bouillies. </text><text x="1181" y="470" text-anchor="middle" fill="rgb(54,21,44)">Si vous avez certaines allergies </text><text x="1181" y="520" text-anchor="middle" fill="rgb(54,21,44)">alimentaires, faites le nous savoir, nous vous </text><text x="1181" y="570" text-anchor="middle" fill="rgb(54,21,44)">proposerons une alternative. </text><text x="1181" y="750" style="font-family:chivo;font-size:50;fill:rgb(54,21,44);text-anchor:middle">Heures d'ouverture</text><text x="1181" y="800" style="font-family:chivo;font-size:50;fill:rgb(54,21,44);text-anchor:middle">Du Lundi au Dimanche</text><text x="1181" y="850" style="font-family:chivo;font-size:50;fill:rgb(54,21,44);text-anchor:middle">12:00 - 14:00</text><text x="1181" y="900" style="font-family:chivo;font-size:50;fill:rgb(54,21,44);text-anchor:middle">18:30 - 22:30</text><text x="1181" y="1025" style="font-family:chivo;font-size:50;fill:rgb(54,21,44);text-anchor:middle">For a menu in English, check our website</text><text x="1181" y="1125" style="font-family:chivo;font-size:80px;fill:rgb(54,21,44);text-anchor:middle">NOODL.ch</text><text x="1181" y="1250" style="font-family:chivo;font-size:50;fill:rgb(54,21,44);text-anchor:middle">Rue des Eaux-Vives 8</text><text x="1181" y="1300" style="font-family:chivo;font-size:50;fill:rgb(54,21,44);text-anchor:middle">1207 Genève</text><text x="1181" y="1400" style="font-family:chivo;font-size:50;fill:rgb(54,21,44);text-anchor:middle">022 736 11 88</text><text x="1181" y="1500" text-anchor="middle" fill="rgb(54,21,44)">N'hésitez pas à nous poser des </text><text x="1181" y="1550" text-anchor="middle" fill="rgb(54,21,44)">questions. </text><path d="m 14.991193,141.35332 c -10.5827801,-3.75251 -10.5274501,-4.56719 0.51791,-7.62387 23.35466,-6.46317 40.33945,-20.5823 57.27005,-47.607489 12.43151,-19.84359 22.55888,-31.3484 29.626327,-33.65587 12.05762,-3.9367 27.40164,5.55004 31.17502,19.27454 2.60811,9.48619 -1.07526,19.61067 -11.11019,30.538609 -11.99436,13.06173 -36.748977,28.56253 -59.673167,37.36602 -9.75784,3.74728 -39.09858,4.79556 -47.80595,1.70806 z m 56.84651,-33.91904 c 3.67126,-3.52154 9.70319,-11.027149 13.40427,-16.679149 7.87977,-12.03333 21.675777,-26.27442 26.814937,-27.68 4.64727,-1.27104 4.55787,-2.88144 -0.29373,-5.29032 -8.13274,-4.03801 -17.090167,3.01725 -26.900307,21.18782 -6.82869,12.64828 -21.95985,31.250399 -33.23327,40.856689 -5.04567,4.29953 -4.91326,4.27485 4.16079,-0.7757 5.15477,-2.8691 12.37607,-8.09781 16.04731,-11.61934 z M 137.27741,65.790811 c -1.85836,-6.38061 -8.3716,-13.00307 -14.65655,-14.90237 l -6.21957,-1.87953 4.46701,-2.18212 c 2.45686,-1.20018 6.56973,-2.03641 9.13971,-1.85831 2.56997,0.17809 5.71746,-0.62108 6.99441,-1.77594 4.35963,-3.94283 7.35382,-15.68761 6.66087,-26.12733 -0.64577,-9.7285996 -0.6241,-9.7916296 3.36617,-9.7916296 4.44744,0 5.79694,3.0415396 5.83211,13.1444196 0.0307,8.79953 -2.76298,16.19933 -8.66656,22.95626 -4.13693,4.73492 -4.91786,6.51426 -3.52517,8.03192 2.39617,2.61117 2.18945,11.13571 -0.35888,14.79903 -1.96426,2.82371 -2.09567,2.80575 -3.03355,-0.4144 z" transform="translate(731,1650) scale(0.4)" fill="rgb(54,21,44)"></path><text x="881" y="1690" fill="rgb(54,21,44)" font-weight="bold">Plat épicé</text><path d="m 123.68693,19.162709 c 8.7507,0 10.9591,0.36348 16.20628,2.66992 7.74927,3.40624 15.17116,10.36799 18.80355,17.63477 2.45957,4.9205 2.84719,6.98943 2.84719,15.19531 0,8.92004 -0.22197,9.88528 -3.64908,15.8125 -5.49169,9.49794 -11.82416,14.27944 -24.21674,18.285161 -18.45659,5.965829 -22.93565,10.339856 -27.82416,27.16797 -1.47549,5.07925 -3.78441,11.25937 -5.12994,13.73437 -4.055283,7.45944 -13.284452,14.65543 -23.137855,18.03906 -8.742717,3.00223 -22.766596,2.28151 -31.175377,-1.60156 -8.103758,-3.74221 -16.523476,-11.60649 -20.438545,-19.08984 -2.777327,-5.30866 -3.05964,-6.81368 -3.05964,-16.34766 0,-9.47152 0.291618,-11.056774 2.9805,-16.191411 3.904723,-7.45639 11.562791,-15.34268 17.699651,-18.22851 2.702437,-1.270799 9.895419,-3.75364 15.983425,-5.51563 6.087997,-1.76198 12.853265,-4.25812 15.033661,-5.54882 4.321652,-2.55829 8.46475,-9.43636 13.402843,-22.2461 3.476119,-9.01732 9.637652,-15.68114 18.811877,-20.3457 6.32075,-3.21373 7.35007,-3.42383 16.86236,-3.42383 z m 18.45153,13.62305 c -4.44215,-0.14686 -8.00592,5.52963 -3.97813,9.30664 0.92166,0.86429 2.56606,1.57031 3.65531,1.57031 5.06549,0 7.48815,-6.83557 3.45537,-9.75 -1.03622,-0.74886 -2.10742,-1.09306 -3.13255,-1.12695 z m -10.97843,13.96679 c -0.18609,-0.006 -0.37258,-0.004 -0.5582,0.006 -3.2669,0.18165 -6.35837,2.86426 -5.46736,6.19336 0.8219,3.07077 4.87135,4.8841 7.68554,3.44141 4.00141,-2.0513 4.83911,-5.48562 1.98909,-8.1582 -1.0502,-0.98481 -2.34652,-1.43935 -3.64907,-1.48243 z m 17.05398,1.91016 c -1.52494,0 -3.34723,0.54117 -4.05105,1.20117 -2.12111,1.98904 -1.52176,6.52719 1.08931,8.24219 1.30353,0.85618 2.63624,1.55664 2.96174,1.55664 2.16292,0 5.33197,-3.47971 5.33197,-5.85547 0,-3.44143 -1.76429,-5.14453 -5.33197,-5.14453 z" transform="translate(731,1750) scale(0.4)" fill="rgb(54,21,44)"></path><text x="881" y="1790" fill="rgb(54,21,44)" font-weight="bold">Plat contenant des arachides</text></g></svg>