<svg width="2362" height="2303"><rect x="0" y="0" width="2362" height="2303" fill="lightgrey"></rect><circle cx="1181" cy="1151.5" r="1181" fill="white"></circle><rect x="1181" y="0" width="2362" height="2303" fill="white"></rect><text x="1181" y="250" style="font-family:chivo;font-size:100;text-anchor:middle;font-weight:bold;fill:rgb(54,21,44)">Plats avec du riz</text><text x="590.5" y="640" style="font-family:chivo;font-size:60;font-weight:bold;fill:rgb(54,21,44);">Poulet croustillant</text><text x="1771.5" y="640" style="font-family:chivo;font-size:40;font-weight:none;fill:rgb(54,21,44);text-anchor:end">23.50</text><text x="590.5" y="685" style="font-family:chivo;font-size:30;font-weight:italic;fill:rgb(54,21,44);">Sauce aux herbes</text><text x="590.5" y="825" style="font-family:chivo;font-size:60;font-weight:bold;fill:rgb(54,21,44);">Tom yum</text><path d="m 14.991193,141.35332 c -10.5827801,-3.75251 -10.5274501,-4.56719 0.51791,-7.62387 23.35466,-6.46317 40.33945,-20.5823 57.27005,-47.607489 12.43151,-19.84359 22.55888,-31.3484 29.626327,-33.65587 12.05762,-3.9367 27.40164,5.55004 31.17502,19.27454 2.60811,9.48619 -1.07526,19.61067 -11.11019,30.538609 -11.99436,13.06173 -36.748977,28.56253 -59.673167,37.36602 -9.75784,3.74728 -39.09858,4.79556 -47.80595,1.70806 z m 56.84651,-33.91904 c 3.67126,-3.52154 9.70319,-11.027149 13.40427,-16.679149 7.87977,-12.03333 21.675777,-26.27442 26.814937,-27.68 4.64727,-1.27104 4.55787,-2.88144 -0.29373,-5.29032 -8.13274,-4.03801 -17.090167,3.01725 -26.900307,21.18782 -6.82869,12.64828 -21.95985,31.250399 -33.23327,40.856689 -5.04567,4.29953 -4.91326,4.27485 4.16079,-0.7757 5.15477,-2.8691 12.37607,-8.09781 16.04731,-11.61934 z M 137.27741,65.790811 c -1.85836,-6.38061 -8.3716,-13.00307 -14.65655,-14.90237 l -6.21957,-1.87953 4.46701,-2.18212 c 2.45686,-1.20018 6.56973,-2.03641 9.13971,-1.85831 2.56997,0.17809 5.71746,-0.62108 6.99441,-1.77594 4.35963,-3.94283 7.35382,-15.68761 6.66087,-26.12733 -0.64577,-9.7285996 -0.6241,-9.7916296 3.36617,-9.7916296 4.44744,0 5.79694,3.0415396 5.83211,13.1444196 0.0307,8.79953 -2.76298,16.19933 -8.66656,22.95626 -4.13693,4.73492 -4.91786,6.51426 -3.52517,8.03192 2.39617,2.61117 2.18945,11.13571 -0.35888,14.79903 -1.96426,2.82371 -2.09567,2.80575 -3.03355,-0.4144 z" transform="translate(890.5,775) scale(0.3)" fill="rgb(54,21,44)"></path><text x="590.5" y="870" style="font-family:chivo;font-size:30;font-weight:italic;fill:rgb(54,21,44);">Au lait de coco et à la citronelle</text><text x="590.5" y="930" style="font-family:chivo;font-size:40;font-weight:none;fill:rgb(54,21,44);">poulet</text><text x="1771.5" y="930" style="font-family:chivo;font-size:40;font-weight:none;fill:rgb(54,21,44);text-anchor:end">21.50</text><text x="590.5" y="990" style="font-family:chivo;font-size:40;font-weight:none;fill:rgb(54,21,44);">crevettes</text><text x="1771.5" y="990" style="font-family:chivo;font-size:40;font-weight:none;fill:rgb(54,21,44);text-anchor:end">24</text><text x="590.5" y="1050" style="font-family:chivo;font-size:40;font-weight:none;fill:rgb(54,21,44);">calamars</text><text x="1771.5" y="1050" style="font-family:chivo;font-size:40;font-weight:none;fill:rgb(54,21,44);text-anchor:end">22.50</text><text x="590.5" y="1110" style="font-family:chivo;font-size:40;font-weight:none;fill:rgb(54,21,44);">tofu</text><text x="1771.5" y="1110" style="font-family:chivo;font-size:40;font-weight:none;fill:rgb(54,21,44);text-anchor:end">20.50</text><text x="590.5" y="1250" style="font-family:chivo;font-size:60;font-weight:bold;fill:rgb(54,21,44);">Tom kha</text><text x="590.5" y="1295" style="font-family:chivo;font-size:30;font-weight:italic;fill:rgb(54,21,44);">Au lait de coco et au galanga</text><text x="590.5" y="1355" style="font-family:chivo;font-size:40;font-weight:none;fill:rgb(54,21,44);">poulet</text><text x="1771.5" y="1355" style="font-family:chivo;font-size:40;font-weight:none;fill:rgb(54,21,44);text-anchor:end">21.50</text><text x="590.5" y="1415" style="font-family:chivo;font-size:40;font-weight:none;fill:rgb(54,21,44);">crevettes</text><text x="1771.5" y="1415" style="font-family:chivo;font-size:40;font-weight:none;fill:rgb(54,21,44);text-anchor:end">24</text><text x="590.5" y="1475" style="font-family:chivo;font-size:40;font-weight:none;fill:rgb(54,21,44);">calamars</text><text x="1771.5" y="1475" style="font-family:chivo;font-size:40;font-weight:none;fill:rgb(54,21,44);text-anchor:end">22.50</text><text x="590.5" y="1535" style="font-family:chivo;font-size:40;font-weight:none;fill:rgb(54,21,44);">tofu</text><text x="1771.5" y="1535" style="font-family:chivo;font-size:40;font-weight:none;fill:rgb(54,21,44);text-anchor:end">20.50</text></svg>